<mxfile host="Electron" modified="2024-04-09T06:33:33.227Z" agent="Mozilla/5.0 (Windows NT 10.0; Win64; x64) AppleWebKit/537.36 (KHTML, like Gecko) draw.io/21.6.5 Chrome/114.0.5735.243 Electron/25.3.1 Safari/537.36" etag="OX65D-fa68m9qJIwke9c" version="21.6.5" type="device">
  <diagram name="Сторінка-1" id="L1LJ3Xz__yvtlqMjZck5">
    <mxGraphModel dx="1219" dy="722" grid="1" gridSize="10" guides="1" tooltips="1" connect="1" arrows="1" fold="1" page="1" pageScale="1" pageWidth="1169" pageHeight="827" math="0" shadow="0">
      <root>
        <mxCell id="0" />
        <mxCell id="1" parent="0" />
        <mxCell id="9Vv_cwGRtVyxHVXITMpo-1" value="CarDealership.&lt;div&gt;PersonsAdministration&lt;/div&gt;" style="swimlane;whiteSpace=wrap;html=1;dashed=1;fillColor=#fff2cc;strokeColor=#d6b656;strokeWidth=2;startSize=40;" parent="1" vertex="1">
          <mxGeometry x="280" y="40" width="240" height="2840" as="geometry" />
        </mxCell>
        <mxCell id="9Vv_cwGRtVyxHVXITMpo-8" style="rounded=0;orthogonalLoop=1;jettySize=auto;html=1;entryX=0;entryY=0;entryDx=0;entryDy=0;exitX=0.955;exitY=0.043;exitDx=0;exitDy=0;exitPerimeter=0;" parent="9Vv_cwGRtVyxHVXITMpo-1" source="6AtSezz89HY-rOXio-6f-1" target="9Vv_cwGRtVyxHVXITMpo-7" edge="1">
          <mxGeometry relative="1" as="geometry">
            <mxPoint x="-60" y="241.28" as="sourcePoint" />
            <mxPoint x="80" y="241.28" as="targetPoint" />
          </mxGeometry>
        </mxCell>
        <mxCell id="9Vv_cwGRtVyxHVXITMpo-9" value="Emploey model" style="edgeLabel;html=1;align=center;verticalAlign=middle;resizable=0;points=[];" parent="9Vv_cwGRtVyxHVXITMpo-8" vertex="1" connectable="0">
          <mxGeometry x="-0.1143" y="2" relative="1" as="geometry">
            <mxPoint as="offset" />
          </mxGeometry>
        </mxCell>
        <mxCell id="6AtSezz89HY-rOXio-6f-1" value="Create Employee" style="rounded=1;whiteSpace=wrap;html=1;" parent="9Vv_cwGRtVyxHVXITMpo-1" vertex="1">
          <mxGeometry x="-200" y="231.28" width="120" height="30" as="geometry" />
        </mxCell>
        <mxCell id="9Vv_cwGRtVyxHVXITMpo-14" style="rounded=0;orthogonalLoop=1;jettySize=auto;html=1;exitX=0;exitY=1;exitDx=0;exitDy=0;entryX=1;entryY=1;entryDx=0;entryDy=0;" parent="9Vv_cwGRtVyxHVXITMpo-1" source="9Vv_cwGRtVyxHVXITMpo-7" target="6AtSezz89HY-rOXio-6f-1" edge="1">
          <mxGeometry relative="1" as="geometry" />
        </mxCell>
        <mxCell id="9Vv_cwGRtVyxHVXITMpo-16" style="rounded=0;orthogonalLoop=1;jettySize=auto;html=1;entryX=0;entryY=0;entryDx=0;entryDy=0;exitX=0.955;exitY=0.043;exitDx=0;exitDy=0;exitPerimeter=0;" parent="9Vv_cwGRtVyxHVXITMpo-1" source="9Vv_cwGRtVyxHVXITMpo-18" target="9Vv_cwGRtVyxHVXITMpo-19" edge="1">
          <mxGeometry relative="1" as="geometry">
            <mxPoint x="-60" y="299.28" as="sourcePoint" />
            <mxPoint x="80" y="299.28" as="targetPoint" />
          </mxGeometry>
        </mxCell>
        <mxCell id="9Vv_cwGRtVyxHVXITMpo-17" value="Emploey id, Edit model" style="edgeLabel;html=1;align=center;verticalAlign=middle;resizable=0;points=[];" parent="9Vv_cwGRtVyxHVXITMpo-16" vertex="1" connectable="0">
          <mxGeometry x="-0.1143" y="2" relative="1" as="geometry">
            <mxPoint as="offset" />
          </mxGeometry>
        </mxCell>
        <mxCell id="9Vv_cwGRtVyxHVXITMpo-18" value="Edit Employee" style="rounded=1;whiteSpace=wrap;html=1;" parent="9Vv_cwGRtVyxHVXITMpo-1" vertex="1">
          <mxGeometry x="-200" y="289.28" width="120" height="30" as="geometry" />
        </mxCell>
        <mxCell id="9Vv_cwGRtVyxHVXITMpo-20" style="rounded=0;orthogonalLoop=1;jettySize=auto;html=1;exitX=0;exitY=1;exitDx=0;exitDy=0;entryX=1;entryY=1;entryDx=0;entryDy=0;" parent="9Vv_cwGRtVyxHVXITMpo-1" source="9Vv_cwGRtVyxHVXITMpo-19" target="9Vv_cwGRtVyxHVXITMpo-18" edge="1">
          <mxGeometry relative="1" as="geometry" />
        </mxCell>
        <mxCell id="9Vv_cwGRtVyxHVXITMpo-7" value="Check and create" style="rounded=0;whiteSpace=wrap;html=1;" parent="9Vv_cwGRtVyxHVXITMpo-1" vertex="1">
          <mxGeometry x="60" y="231.28" width="120" height="30" as="geometry" />
        </mxCell>
        <mxCell id="9Vv_cwGRtVyxHVXITMpo-19" value="CheckI d and edit" style="rounded=0;whiteSpace=wrap;html=1;" parent="9Vv_cwGRtVyxHVXITMpo-1" vertex="1">
          <mxGeometry x="60" y="289.28" width="120" height="30" as="geometry" />
        </mxCell>
        <mxCell id="9Vv_cwGRtVyxHVXITMpo-62" value="Delete employee&amp;nbsp;&lt;div&gt;|| error&lt;/div&gt;" style="rounded=0;whiteSpace=wrap;html=1;" parent="9Vv_cwGRtVyxHVXITMpo-1" vertex="1">
          <mxGeometry x="60" y="490" width="120" height="30" as="geometry" />
        </mxCell>
        <mxCell id="9Vv_cwGRtVyxHVXITMpo-31" value="" style="rounded=0;whiteSpace=wrap;html=1;" parent="9Vv_cwGRtVyxHVXITMpo-1" vertex="1">
          <mxGeometry x="60" y="81.28" width="120" height="30" as="geometry" />
        </mxCell>
        <mxCell id="9Vv_cwGRtVyxHVXITMpo-37" value="" style="rounded=0;whiteSpace=wrap;html=1;" parent="9Vv_cwGRtVyxHVXITMpo-1" vertex="1">
          <mxGeometry x="60" y="141.28" width="120" height="30" as="geometry" />
        </mxCell>
        <mxCell id="9Vv_cwGRtVyxHVXITMpo-43" value="Check Id and status" style="rounded=0;whiteSpace=wrap;html=1;" parent="9Vv_cwGRtVyxHVXITMpo-1" vertex="1">
          <mxGeometry x="60" y="341.28" width="120" height="30" as="geometry" />
        </mxCell>
        <mxCell id="9Vv_cwGRtVyxHVXITMpo-49" value="Check Id and status" style="rounded=0;whiteSpace=wrap;html=1;" parent="9Vv_cwGRtVyxHVXITMpo-1" vertex="1">
          <mxGeometry x="60" y="394.28" width="120" height="30" as="geometry" />
        </mxCell>
        <mxCell id="9Vv_cwGRtVyxHVXITMpo-55" value="Check Id and status" style="rounded=0;whiteSpace=wrap;html=1;" parent="9Vv_cwGRtVyxHVXITMpo-1" vertex="1">
          <mxGeometry x="60" y="451.28" width="120" height="30" as="geometry" />
        </mxCell>
        <mxCell id="2nJLoESrrKoE5sK8mSlh-21" value="Delete employee&amp;nbsp;&lt;div&gt;|| error&lt;/div&gt;" style="rounded=0;whiteSpace=wrap;html=1;" vertex="1" parent="9Vv_cwGRtVyxHVXITMpo-1">
          <mxGeometry x="60" y="1020" width="120" height="41.28" as="geometry" />
        </mxCell>
        <mxCell id="2nJLoESrrKoE5sK8mSlh-72" value="" style="rounded=0;whiteSpace=wrap;html=1;" vertex="1" parent="9Vv_cwGRtVyxHVXITMpo-1">
          <mxGeometry x="60" y="1340" width="120" height="30" as="geometry" />
        </mxCell>
        <mxCell id="9Vv_cwGRtVyxHVXITMpo-4" value="CarDealership user" style="text;html=1;align=center;verticalAlign=middle;whiteSpace=wrap;rounded=0;fillColor=#f5f5f5;strokeColor=#666666;fontColor=#333333;strokeWidth=2;fontSize=14;fontStyle=1" parent="1" vertex="1">
          <mxGeometry x="80" y="30" width="150" height="30" as="geometry" />
        </mxCell>
        <mxCell id="9Vv_cwGRtVyxHVXITMpo-10" value="CarDealership.CarDealership" style="swimlane;whiteSpace=wrap;html=1;dashed=1;fillColor=#d5e8d4;strokeColor=#82b366;strokeWidth=2;startSize=40;" parent="1" vertex="1">
          <mxGeometry x="580" y="40" width="270" height="2840" as="geometry" />
        </mxCell>
        <mxCell id="9Vv_cwGRtVyxHVXITMpo-57" value="Find is in document" style="rounded=0;whiteSpace=wrap;html=1;" parent="9Vv_cwGRtVyxHVXITMpo-10" vertex="1">
          <mxGeometry x="85" y="451.28" width="120" height="40" as="geometry" />
        </mxCell>
        <mxCell id="2nJLoESrrKoE5sK8mSlh-61" value="" style="rounded=0;whiteSpace=wrap;html=1;" vertex="1" parent="9Vv_cwGRtVyxHVXITMpo-10">
          <mxGeometry x="90" y="1185" width="120" height="30" as="geometry" />
        </mxCell>
        <mxCell id="2nJLoESrrKoE5sK8mSlh-75" value="" style="rounded=0;whiteSpace=wrap;html=1;" vertex="1" parent="9Vv_cwGRtVyxHVXITMpo-10">
          <mxGeometry x="90" y="1370" width="120" height="30" as="geometry" />
        </mxCell>
        <mxCell id="2nJLoESrrKoE5sK8mSlh-80" value="Create order to warehouse" style="rounded=0;whiteSpace=wrap;html=1;" vertex="1" parent="9Vv_cwGRtVyxHVXITMpo-10">
          <mxGeometry x="90" y="1430" width="120" height="30" as="geometry" />
        </mxCell>
        <mxCell id="2nJLoESrrKoE5sK8mSlh-84" value="save order" style="rounded=0;whiteSpace=wrap;html=1;" vertex="1" parent="9Vv_cwGRtVyxHVXITMpo-10">
          <mxGeometry x="90" y="1490" width="120" height="30" as="geometry" />
        </mxCell>
        <mxCell id="9Vv_cwGRtVyxHVXITMpo-12" value="CarDealership.Warehouse" style="swimlane;whiteSpace=wrap;html=1;dashed=1;fillColor=#dae8fc;strokeColor=#6c8ebf;strokeWidth=2;startSize=40;" parent="1" vertex="1">
          <mxGeometry x="930" y="40" width="190" height="2840" as="geometry" />
        </mxCell>
        <mxCell id="2nJLoESrrKoE5sK8mSlh-77" value="" style="rounded=0;whiteSpace=wrap;html=1;" vertex="1" parent="9Vv_cwGRtVyxHVXITMpo-12">
          <mxGeometry x="40" y="1400" width="120" height="30" as="geometry" />
        </mxCell>
        <mxCell id="2nJLoESrrKoE5sK8mSlh-83" value="check car" style="rounded=0;whiteSpace=wrap;html=1;" vertex="1" parent="9Vv_cwGRtVyxHVXITMpo-12">
          <mxGeometry x="40" y="1460" width="120" height="30" as="geometry" />
        </mxCell>
        <mxCell id="9Vv_cwGRtVyxHVXITMpo-28" style="rounded=0;orthogonalLoop=1;jettySize=auto;html=1;entryX=0;entryY=0;entryDx=0;entryDy=0;exitX=0.955;exitY=0.043;exitDx=0;exitDy=0;exitPerimeter=0;" parent="1" source="9Vv_cwGRtVyxHVXITMpo-30" target="9Vv_cwGRtVyxHVXITMpo-31" edge="1">
          <mxGeometry relative="1" as="geometry">
            <mxPoint x="220" y="131.28" as="sourcePoint" />
            <mxPoint x="360" y="131.28" as="targetPoint" />
          </mxGeometry>
        </mxCell>
        <mxCell id="9Vv_cwGRtVyxHVXITMpo-29" value="Emploey id" style="edgeLabel;html=1;align=center;verticalAlign=middle;resizable=0;points=[];" parent="9Vv_cwGRtVyxHVXITMpo-28" vertex="1" connectable="0">
          <mxGeometry x="-0.1143" y="2" relative="1" as="geometry">
            <mxPoint as="offset" />
          </mxGeometry>
        </mxCell>
        <mxCell id="9Vv_cwGRtVyxHVXITMpo-30" value="Get Employee" style="rounded=1;whiteSpace=wrap;html=1;" parent="1" vertex="1">
          <mxGeometry x="80" y="121.28" width="120" height="30" as="geometry" />
        </mxCell>
        <mxCell id="9Vv_cwGRtVyxHVXITMpo-32" style="rounded=0;orthogonalLoop=1;jettySize=auto;html=1;exitX=0;exitY=1;exitDx=0;exitDy=0;entryX=1;entryY=1;entryDx=0;entryDy=0;" parent="1" source="9Vv_cwGRtVyxHVXITMpo-31" target="9Vv_cwGRtVyxHVXITMpo-30" edge="1">
          <mxGeometry relative="1" as="geometry" />
        </mxCell>
        <mxCell id="9Vv_cwGRtVyxHVXITMpo-34" style="rounded=0;orthogonalLoop=1;jettySize=auto;html=1;entryX=0;entryY=0;entryDx=0;entryDy=0;exitX=0.955;exitY=0.043;exitDx=0;exitDy=0;exitPerimeter=0;" parent="1" source="9Vv_cwGRtVyxHVXITMpo-36" target="9Vv_cwGRtVyxHVXITMpo-37" edge="1">
          <mxGeometry relative="1" as="geometry">
            <mxPoint x="220" y="191.28" as="sourcePoint" />
            <mxPoint x="360" y="191.28" as="targetPoint" />
          </mxGeometry>
        </mxCell>
        <mxCell id="9Vv_cwGRtVyxHVXITMpo-35" value="Emploey filter" style="edgeLabel;html=1;align=center;verticalAlign=middle;resizable=0;points=[];" parent="9Vv_cwGRtVyxHVXITMpo-34" vertex="1" connectable="0">
          <mxGeometry x="-0.1143" y="2" relative="1" as="geometry">
            <mxPoint as="offset" />
          </mxGeometry>
        </mxCell>
        <mxCell id="9Vv_cwGRtVyxHVXITMpo-36" value="Get by filter" style="rounded=1;whiteSpace=wrap;html=1;" parent="1" vertex="1">
          <mxGeometry x="80" y="181.28" width="120" height="30" as="geometry" />
        </mxCell>
        <mxCell id="9Vv_cwGRtVyxHVXITMpo-38" style="rounded=0;orthogonalLoop=1;jettySize=auto;html=1;exitX=0;exitY=1;exitDx=0;exitDy=0;entryX=1;entryY=1;entryDx=0;entryDy=0;" parent="1" source="9Vv_cwGRtVyxHVXITMpo-37" target="9Vv_cwGRtVyxHVXITMpo-36" edge="1">
          <mxGeometry relative="1" as="geometry" />
        </mxCell>
        <mxCell id="9Vv_cwGRtVyxHVXITMpo-40" style="rounded=0;orthogonalLoop=1;jettySize=auto;html=1;entryX=0;entryY=0;entryDx=0;entryDy=0;exitX=0.955;exitY=0.043;exitDx=0;exitDy=0;exitPerimeter=0;" parent="1" source="9Vv_cwGRtVyxHVXITMpo-42" target="9Vv_cwGRtVyxHVXITMpo-43" edge="1">
          <mxGeometry relative="1" as="geometry">
            <mxPoint x="220" y="391.28" as="sourcePoint" />
            <mxPoint x="360" y="391.28" as="targetPoint" />
          </mxGeometry>
        </mxCell>
        <mxCell id="9Vv_cwGRtVyxHVXITMpo-41" value="Emploey id" style="edgeLabel;html=1;align=center;verticalAlign=middle;resizable=0;points=[];" parent="9Vv_cwGRtVyxHVXITMpo-40" vertex="1" connectable="0">
          <mxGeometry x="-0.1143" y="2" relative="1" as="geometry">
            <mxPoint as="offset" />
          </mxGeometry>
        </mxCell>
        <mxCell id="9Vv_cwGRtVyxHVXITMpo-42" value="Restore Employee" style="rounded=1;whiteSpace=wrap;html=1;" parent="1" vertex="1">
          <mxGeometry x="80" y="381.28" width="120" height="30" as="geometry" />
        </mxCell>
        <mxCell id="9Vv_cwGRtVyxHVXITMpo-44" style="rounded=0;orthogonalLoop=1;jettySize=auto;html=1;exitX=0;exitY=1;exitDx=0;exitDy=0;entryX=1;entryY=1;entryDx=0;entryDy=0;" parent="1" source="9Vv_cwGRtVyxHVXITMpo-43" target="9Vv_cwGRtVyxHVXITMpo-42" edge="1">
          <mxGeometry relative="1" as="geometry" />
        </mxCell>
        <mxCell id="9Vv_cwGRtVyxHVXITMpo-46" style="rounded=0;orthogonalLoop=1;jettySize=auto;html=1;entryX=0;entryY=0;entryDx=0;entryDy=0;exitX=0.955;exitY=0.043;exitDx=0;exitDy=0;exitPerimeter=0;" parent="1" source="9Vv_cwGRtVyxHVXITMpo-48" target="9Vv_cwGRtVyxHVXITMpo-49" edge="1">
          <mxGeometry relative="1" as="geometry">
            <mxPoint x="220" y="444.28" as="sourcePoint" />
            <mxPoint x="360" y="444.28" as="targetPoint" />
          </mxGeometry>
        </mxCell>
        <mxCell id="9Vv_cwGRtVyxHVXITMpo-47" value="Emploey id" style="edgeLabel;html=1;align=center;verticalAlign=middle;resizable=0;points=[];" parent="9Vv_cwGRtVyxHVXITMpo-46" vertex="1" connectable="0">
          <mxGeometry x="-0.1143" y="2" relative="1" as="geometry">
            <mxPoint as="offset" />
          </mxGeometry>
        </mxCell>
        <mxCell id="9Vv_cwGRtVyxHVXITMpo-48" value="Remove Employee" style="rounded=1;whiteSpace=wrap;html=1;" parent="1" vertex="1">
          <mxGeometry x="80" y="434.28" width="120" height="30" as="geometry" />
        </mxCell>
        <mxCell id="9Vv_cwGRtVyxHVXITMpo-50" style="rounded=0;orthogonalLoop=1;jettySize=auto;html=1;exitX=0;exitY=1;exitDx=0;exitDy=0;entryX=1;entryY=1;entryDx=0;entryDy=0;" parent="1" source="9Vv_cwGRtVyxHVXITMpo-49" target="9Vv_cwGRtVyxHVXITMpo-48" edge="1">
          <mxGeometry relative="1" as="geometry" />
        </mxCell>
        <mxCell id="9Vv_cwGRtVyxHVXITMpo-52" style="rounded=0;orthogonalLoop=1;jettySize=auto;html=1;entryX=0;entryY=0;entryDx=0;entryDy=0;exitX=1;exitY=0;exitDx=0;exitDy=0;" parent="1" source="9Vv_cwGRtVyxHVXITMpo-54" target="9Vv_cwGRtVyxHVXITMpo-55" edge="1">
          <mxGeometry relative="1" as="geometry">
            <mxPoint x="214.5999999999999" y="494.28999999999996" as="sourcePoint" />
            <mxPoint x="360" y="501.28" as="targetPoint" />
          </mxGeometry>
        </mxCell>
        <mxCell id="9Vv_cwGRtVyxHVXITMpo-53" value="Emploey id" style="edgeLabel;html=1;align=center;verticalAlign=middle;resizable=0;points=[];" parent="9Vv_cwGRtVyxHVXITMpo-52" vertex="1" connectable="0">
          <mxGeometry x="-0.1143" y="2" relative="1" as="geometry">
            <mxPoint as="offset" />
          </mxGeometry>
        </mxCell>
        <mxCell id="9Vv_cwGRtVyxHVXITMpo-54" value="Delete Employee" style="rounded=1;whiteSpace=wrap;html=1;" parent="1" vertex="1">
          <mxGeometry x="80" y="491.28" width="120" height="68.72" as="geometry" />
        </mxCell>
        <mxCell id="9Vv_cwGRtVyxHVXITMpo-58" style="rounded=0;orthogonalLoop=1;jettySize=auto;html=1;exitX=1;exitY=0;exitDx=0;exitDy=0;entryX=0;entryY=0;entryDx=0;entryDy=0;" parent="1" source="9Vv_cwGRtVyxHVXITMpo-55" target="9Vv_cwGRtVyxHVXITMpo-57" edge="1">
          <mxGeometry relative="1" as="geometry" />
        </mxCell>
        <mxCell id="9Vv_cwGRtVyxHVXITMpo-59" value="REST Search id in document" style="edgeLabel;html=1;align=center;verticalAlign=middle;resizable=0;points=[];" parent="9Vv_cwGRtVyxHVXITMpo-58" vertex="1" connectable="0">
          <mxGeometry x="0.0155" relative="1" as="geometry">
            <mxPoint as="offset" />
          </mxGeometry>
        </mxCell>
        <mxCell id="9Vv_cwGRtVyxHVXITMpo-63" style="rounded=0;orthogonalLoop=1;jettySize=auto;html=1;exitX=0;exitY=1;exitDx=0;exitDy=0;entryX=1;entryY=0;entryDx=0;entryDy=0;" parent="1" source="9Vv_cwGRtVyxHVXITMpo-57" target="9Vv_cwGRtVyxHVXITMpo-62" edge="1">
          <mxGeometry relative="1" as="geometry">
            <mxPoint x="477" y="531.28" as="targetPoint" />
          </mxGeometry>
        </mxCell>
        <mxCell id="9Vv_cwGRtVyxHVXITMpo-65" value="response status" style="edgeLabel;html=1;align=center;verticalAlign=middle;resizable=0;points=[];" parent="9Vv_cwGRtVyxHVXITMpo-63" vertex="1" connectable="0">
          <mxGeometry x="0.0836" y="2" relative="1" as="geometry">
            <mxPoint as="offset" />
          </mxGeometry>
        </mxCell>
        <mxCell id="9Vv_cwGRtVyxHVXITMpo-64" style="rounded=0;orthogonalLoop=1;jettySize=auto;html=1;exitX=0;exitY=1;exitDx=0;exitDy=0;entryX=1;entryY=1;entryDx=0;entryDy=0;" parent="1" source="9Vv_cwGRtVyxHVXITMpo-62" target="9Vv_cwGRtVyxHVXITMpo-54" edge="1">
          <mxGeometry relative="1" as="geometry" />
        </mxCell>
        <mxCell id="2nJLoESrrKoE5sK8mSlh-2" value="Employee" style="text;html=1;strokeColor=#6c8ebf;fillColor=#dae8fc;align=center;verticalAlign=middle;whiteSpace=wrap;rounded=0;" vertex="1" parent="1">
          <mxGeometry x="80" y="70" width="150" height="30" as="geometry" />
        </mxCell>
        <mxCell id="2nJLoESrrKoE5sK8mSlh-3" value="Customer" style="text;html=1;strokeColor=#6c8ebf;fillColor=#dae8fc;align=center;verticalAlign=middle;whiteSpace=wrap;rounded=0;" vertex="1" parent="1">
          <mxGeometry x="80" y="600" width="150" height="30" as="geometry" />
        </mxCell>
        <mxCell id="2nJLoESrrKoE5sK8mSlh-9" style="rounded=0;orthogonalLoop=1;jettySize=auto;html=1;entryX=0;entryY=0;entryDx=0;entryDy=0;exitX=0.955;exitY=0.043;exitDx=0;exitDy=0;exitPerimeter=0;" edge="1" parent="1" source="2nJLoESrrKoE5sK8mSlh-11" target="2nJLoESrrKoE5sK8mSlh-19">
          <mxGeometry relative="1" as="geometry">
            <mxPoint x="220" y="810" as="sourcePoint" />
            <mxPoint x="360" y="810" as="targetPoint" />
          </mxGeometry>
        </mxCell>
        <mxCell id="2nJLoESrrKoE5sK8mSlh-10" value="Customer model" style="edgeLabel;html=1;align=center;verticalAlign=middle;resizable=0;points=[];" vertex="1" connectable="0" parent="2nJLoESrrKoE5sK8mSlh-9">
          <mxGeometry x="-0.1143" y="2" relative="1" as="geometry">
            <mxPoint as="offset" />
          </mxGeometry>
        </mxCell>
        <mxCell id="2nJLoESrrKoE5sK8mSlh-11" value="Create Customer" style="rounded=1;whiteSpace=wrap;html=1;" vertex="1" parent="1">
          <mxGeometry x="80" y="800" width="120" height="30" as="geometry" />
        </mxCell>
        <mxCell id="2nJLoESrrKoE5sK8mSlh-12" style="rounded=0;orthogonalLoop=1;jettySize=auto;html=1;exitX=0;exitY=1;exitDx=0;exitDy=0;entryX=1;entryY=1;entryDx=0;entryDy=0;" edge="1" parent="1" source="2nJLoESrrKoE5sK8mSlh-19" target="2nJLoESrrKoE5sK8mSlh-11">
          <mxGeometry relative="1" as="geometry" />
        </mxCell>
        <mxCell id="2nJLoESrrKoE5sK8mSlh-14" style="rounded=0;orthogonalLoop=1;jettySize=auto;html=1;entryX=0;entryY=0;entryDx=0;entryDy=0;exitX=0.955;exitY=0.043;exitDx=0;exitDy=0;exitPerimeter=0;" edge="1" parent="1" source="2nJLoESrrKoE5sK8mSlh-16" target="2nJLoESrrKoE5sK8mSlh-20">
          <mxGeometry relative="1" as="geometry">
            <mxPoint x="220" y="868" as="sourcePoint" />
            <mxPoint x="360" y="868" as="targetPoint" />
          </mxGeometry>
        </mxCell>
        <mxCell id="2nJLoESrrKoE5sK8mSlh-15" value="Customer id, Edit model" style="edgeLabel;html=1;align=center;verticalAlign=middle;resizable=0;points=[];" vertex="1" connectable="0" parent="2nJLoESrrKoE5sK8mSlh-14">
          <mxGeometry x="-0.1143" y="2" relative="1" as="geometry">
            <mxPoint as="offset" />
          </mxGeometry>
        </mxCell>
        <mxCell id="2nJLoESrrKoE5sK8mSlh-16" value="Edit Employee" style="rounded=1;whiteSpace=wrap;html=1;" vertex="1" parent="1">
          <mxGeometry x="80" y="858" width="120" height="30" as="geometry" />
        </mxCell>
        <mxCell id="2nJLoESrrKoE5sK8mSlh-17" style="rounded=0;orthogonalLoop=1;jettySize=auto;html=1;exitX=0;exitY=1;exitDx=0;exitDy=0;entryX=1;entryY=1;entryDx=0;entryDy=0;" edge="1" parent="1" source="2nJLoESrrKoE5sK8mSlh-20" target="2nJLoESrrKoE5sK8mSlh-16">
          <mxGeometry relative="1" as="geometry" />
        </mxCell>
        <mxCell id="2nJLoESrrKoE5sK8mSlh-19" value="" style="rounded=0;whiteSpace=wrap;html=1;" vertex="1" parent="1">
          <mxGeometry x="340" y="800" width="120" height="30" as="geometry" />
        </mxCell>
        <mxCell id="2nJLoESrrKoE5sK8mSlh-20" value="CheckI d and edit" style="rounded=0;whiteSpace=wrap;html=1;" vertex="1" parent="1">
          <mxGeometry x="340" y="858" width="120" height="30" as="geometry" />
        </mxCell>
        <mxCell id="2nJLoESrrKoE5sK8mSlh-22" value="" style="rounded=0;whiteSpace=wrap;html=1;" vertex="1" parent="1">
          <mxGeometry x="340" y="650" width="120" height="30" as="geometry" />
        </mxCell>
        <mxCell id="2nJLoESrrKoE5sK8mSlh-23" value="" style="rounded=0;whiteSpace=wrap;html=1;" vertex="1" parent="1">
          <mxGeometry x="340" y="710" width="120" height="30" as="geometry" />
        </mxCell>
        <mxCell id="2nJLoESrrKoE5sK8mSlh-24" value="Check Id and status" style="rounded=0;whiteSpace=wrap;html=1;" vertex="1" parent="1">
          <mxGeometry x="340" y="910" width="120" height="30" as="geometry" />
        </mxCell>
        <mxCell id="2nJLoESrrKoE5sK8mSlh-25" value="Check Id and status" style="rounded=0;whiteSpace=wrap;html=1;" vertex="1" parent="1">
          <mxGeometry x="340" y="963" width="120" height="30" as="geometry" />
        </mxCell>
        <mxCell id="2nJLoESrrKoE5sK8mSlh-26" value="Check Id and status" style="rounded=0;whiteSpace=wrap;html=1;" vertex="1" parent="1">
          <mxGeometry x="340" y="1020" width="120" height="30" as="geometry" />
        </mxCell>
        <mxCell id="2nJLoESrrKoE5sK8mSlh-27" value="Find is in document" style="rounded=0;whiteSpace=wrap;html=1;" vertex="1" parent="1">
          <mxGeometry x="665" y="1020" width="120" height="40" as="geometry" />
        </mxCell>
        <mxCell id="2nJLoESrrKoE5sK8mSlh-28" style="rounded=0;orthogonalLoop=1;jettySize=auto;html=1;entryX=0;entryY=0;entryDx=0;entryDy=0;exitX=0.955;exitY=0.043;exitDx=0;exitDy=0;exitPerimeter=0;" edge="1" parent="1" source="2nJLoESrrKoE5sK8mSlh-30" target="2nJLoESrrKoE5sK8mSlh-22">
          <mxGeometry relative="1" as="geometry">
            <mxPoint x="220" y="660" as="sourcePoint" />
            <mxPoint x="360" y="660" as="targetPoint" />
          </mxGeometry>
        </mxCell>
        <mxCell id="2nJLoESrrKoE5sK8mSlh-29" value="Customer id" style="edgeLabel;html=1;align=center;verticalAlign=middle;resizable=0;points=[];" vertex="1" connectable="0" parent="2nJLoESrrKoE5sK8mSlh-28">
          <mxGeometry x="-0.1143" y="2" relative="1" as="geometry">
            <mxPoint as="offset" />
          </mxGeometry>
        </mxCell>
        <mxCell id="2nJLoESrrKoE5sK8mSlh-30" value="Get Customer" style="rounded=1;whiteSpace=wrap;html=1;" vertex="1" parent="1">
          <mxGeometry x="80" y="650" width="120" height="30" as="geometry" />
        </mxCell>
        <mxCell id="2nJLoESrrKoE5sK8mSlh-31" style="rounded=0;orthogonalLoop=1;jettySize=auto;html=1;exitX=0;exitY=1;exitDx=0;exitDy=0;entryX=1;entryY=1;entryDx=0;entryDy=0;" edge="1" parent="1" source="2nJLoESrrKoE5sK8mSlh-22" target="2nJLoESrrKoE5sK8mSlh-30">
          <mxGeometry relative="1" as="geometry" />
        </mxCell>
        <mxCell id="2nJLoESrrKoE5sK8mSlh-33" style="rounded=0;orthogonalLoop=1;jettySize=auto;html=1;entryX=0;entryY=0;entryDx=0;entryDy=0;exitX=0.955;exitY=0.043;exitDx=0;exitDy=0;exitPerimeter=0;" edge="1" parent="1" source="2nJLoESrrKoE5sK8mSlh-35" target="2nJLoESrrKoE5sK8mSlh-23">
          <mxGeometry relative="1" as="geometry">
            <mxPoint x="220" y="720" as="sourcePoint" />
            <mxPoint x="360" y="720" as="targetPoint" />
          </mxGeometry>
        </mxCell>
        <mxCell id="2nJLoESrrKoE5sK8mSlh-34" value="Customer filter" style="edgeLabel;html=1;align=center;verticalAlign=middle;resizable=0;points=[];" vertex="1" connectable="0" parent="2nJLoESrrKoE5sK8mSlh-33">
          <mxGeometry x="-0.1143" y="2" relative="1" as="geometry">
            <mxPoint as="offset" />
          </mxGeometry>
        </mxCell>
        <mxCell id="2nJLoESrrKoE5sK8mSlh-35" value="Get by filter" style="rounded=1;whiteSpace=wrap;html=1;" vertex="1" parent="1">
          <mxGeometry x="80" y="710" width="120" height="30" as="geometry" />
        </mxCell>
        <mxCell id="2nJLoESrrKoE5sK8mSlh-36" style="rounded=0;orthogonalLoop=1;jettySize=auto;html=1;exitX=0;exitY=1;exitDx=0;exitDy=0;entryX=1;entryY=1;entryDx=0;entryDy=0;" edge="1" parent="1" source="2nJLoESrrKoE5sK8mSlh-23" target="2nJLoESrrKoE5sK8mSlh-35">
          <mxGeometry relative="1" as="geometry" />
        </mxCell>
        <mxCell id="2nJLoESrrKoE5sK8mSlh-38" style="rounded=0;orthogonalLoop=1;jettySize=auto;html=1;entryX=0;entryY=0;entryDx=0;entryDy=0;exitX=0.955;exitY=0.043;exitDx=0;exitDy=0;exitPerimeter=0;" edge="1" parent="1" source="2nJLoESrrKoE5sK8mSlh-40" target="2nJLoESrrKoE5sK8mSlh-24">
          <mxGeometry relative="1" as="geometry">
            <mxPoint x="220" y="920" as="sourcePoint" />
            <mxPoint x="360" y="920" as="targetPoint" />
          </mxGeometry>
        </mxCell>
        <mxCell id="2nJLoESrrKoE5sK8mSlh-39" value="Customer id" style="edgeLabel;html=1;align=center;verticalAlign=middle;resizable=0;points=[];" vertex="1" connectable="0" parent="2nJLoESrrKoE5sK8mSlh-38">
          <mxGeometry x="-0.1143" y="2" relative="1" as="geometry">
            <mxPoint as="offset" />
          </mxGeometry>
        </mxCell>
        <mxCell id="2nJLoESrrKoE5sK8mSlh-40" value="Restore Employee" style="rounded=1;whiteSpace=wrap;html=1;" vertex="1" parent="1">
          <mxGeometry x="80" y="910" width="120" height="30" as="geometry" />
        </mxCell>
        <mxCell id="2nJLoESrrKoE5sK8mSlh-41" style="rounded=0;orthogonalLoop=1;jettySize=auto;html=1;exitX=0;exitY=1;exitDx=0;exitDy=0;entryX=1;entryY=1;entryDx=0;entryDy=0;" edge="1" parent="1" source="2nJLoESrrKoE5sK8mSlh-24" target="2nJLoESrrKoE5sK8mSlh-40">
          <mxGeometry relative="1" as="geometry" />
        </mxCell>
        <mxCell id="2nJLoESrrKoE5sK8mSlh-43" style="rounded=0;orthogonalLoop=1;jettySize=auto;html=1;entryX=0;entryY=0;entryDx=0;entryDy=0;exitX=0.955;exitY=0.043;exitDx=0;exitDy=0;exitPerimeter=0;" edge="1" parent="1" source="2nJLoESrrKoE5sK8mSlh-45" target="2nJLoESrrKoE5sK8mSlh-25">
          <mxGeometry relative="1" as="geometry">
            <mxPoint x="220" y="973" as="sourcePoint" />
            <mxPoint x="360" y="973" as="targetPoint" />
          </mxGeometry>
        </mxCell>
        <mxCell id="2nJLoESrrKoE5sK8mSlh-44" value="Customer id" style="edgeLabel;html=1;align=center;verticalAlign=middle;resizable=0;points=[];" vertex="1" connectable="0" parent="2nJLoESrrKoE5sK8mSlh-43">
          <mxGeometry x="-0.1143" y="2" relative="1" as="geometry">
            <mxPoint as="offset" />
          </mxGeometry>
        </mxCell>
        <mxCell id="2nJLoESrrKoE5sK8mSlh-45" value="Remove Employee" style="rounded=1;whiteSpace=wrap;html=1;" vertex="1" parent="1">
          <mxGeometry x="80" y="963" width="120" height="30" as="geometry" />
        </mxCell>
        <mxCell id="2nJLoESrrKoE5sK8mSlh-46" style="rounded=0;orthogonalLoop=1;jettySize=auto;html=1;exitX=0;exitY=1;exitDx=0;exitDy=0;entryX=1;entryY=1;entryDx=0;entryDy=0;" edge="1" parent="1" source="2nJLoESrrKoE5sK8mSlh-25" target="2nJLoESrrKoE5sK8mSlh-45">
          <mxGeometry relative="1" as="geometry" />
        </mxCell>
        <mxCell id="2nJLoESrrKoE5sK8mSlh-47" style="rounded=0;orthogonalLoop=1;jettySize=auto;html=1;entryX=0;entryY=0;entryDx=0;entryDy=0;exitX=1;exitY=0;exitDx=0;exitDy=0;" edge="1" parent="1" source="2nJLoESrrKoE5sK8mSlh-49" target="2nJLoESrrKoE5sK8mSlh-26">
          <mxGeometry relative="1" as="geometry">
            <mxPoint x="214.5999999999999" y="1023.01" as="sourcePoint" />
            <mxPoint x="360" y="1030" as="targetPoint" />
          </mxGeometry>
        </mxCell>
        <mxCell id="2nJLoESrrKoE5sK8mSlh-48" value="Customer id" style="edgeLabel;html=1;align=center;verticalAlign=middle;resizable=0;points=[];" vertex="1" connectable="0" parent="2nJLoESrrKoE5sK8mSlh-47">
          <mxGeometry x="-0.1143" y="2" relative="1" as="geometry">
            <mxPoint as="offset" />
          </mxGeometry>
        </mxCell>
        <mxCell id="2nJLoESrrKoE5sK8mSlh-49" value="Delete Employee" style="rounded=1;whiteSpace=wrap;html=1;" vertex="1" parent="1">
          <mxGeometry x="80" y="1020" width="120" height="80" as="geometry" />
        </mxCell>
        <mxCell id="2nJLoESrrKoE5sK8mSlh-50" style="rounded=0;orthogonalLoop=1;jettySize=auto;html=1;exitX=1;exitY=0;exitDx=0;exitDy=0;entryX=0;entryY=0;entryDx=0;entryDy=0;" edge="1" parent="1" source="2nJLoESrrKoE5sK8mSlh-26" target="2nJLoESrrKoE5sK8mSlh-27">
          <mxGeometry relative="1" as="geometry" />
        </mxCell>
        <mxCell id="2nJLoESrrKoE5sK8mSlh-51" value="REST Search id in document" style="edgeLabel;html=1;align=center;verticalAlign=middle;resizable=0;points=[];" vertex="1" connectable="0" parent="2nJLoESrrKoE5sK8mSlh-50">
          <mxGeometry x="0.0155" relative="1" as="geometry">
            <mxPoint as="offset" />
          </mxGeometry>
        </mxCell>
        <mxCell id="2nJLoESrrKoE5sK8mSlh-52" style="rounded=0;orthogonalLoop=1;jettySize=auto;html=1;exitX=0;exitY=1;exitDx=0;exitDy=0;entryX=1;entryY=0;entryDx=0;entryDy=0;" edge="1" parent="1" source="2nJLoESrrKoE5sK8mSlh-27" target="2nJLoESrrKoE5sK8mSlh-21">
          <mxGeometry relative="1" as="geometry">
            <mxPoint x="477" y="1060" as="targetPoint" />
          </mxGeometry>
        </mxCell>
        <mxCell id="2nJLoESrrKoE5sK8mSlh-53" value="response status" style="edgeLabel;html=1;align=center;verticalAlign=middle;resizable=0;points=[];" vertex="1" connectable="0" parent="2nJLoESrrKoE5sK8mSlh-52">
          <mxGeometry x="0.0836" y="2" relative="1" as="geometry">
            <mxPoint as="offset" />
          </mxGeometry>
        </mxCell>
        <mxCell id="2nJLoESrrKoE5sK8mSlh-54" style="rounded=0;orthogonalLoop=1;jettySize=auto;html=1;exitX=0;exitY=1;exitDx=0;exitDy=0;entryX=1;entryY=1;entryDx=0;entryDy=0;" edge="1" parent="1" source="2nJLoESrrKoE5sK8mSlh-21" target="2nJLoESrrKoE5sK8mSlh-49">
          <mxGeometry relative="1" as="geometry" />
        </mxCell>
        <mxCell id="2nJLoESrrKoE5sK8mSlh-56" value="Customer Order" style="text;html=1;strokeColor=#82b366;fillColor=#d5e8d4;align=center;verticalAlign=middle;whiteSpace=wrap;rounded=0;" vertex="1" parent="1">
          <mxGeometry x="80" y="1160" width="150" height="30" as="geometry" />
        </mxCell>
        <mxCell id="2nJLoESrrKoE5sK8mSlh-57" style="rounded=0;orthogonalLoop=1;jettySize=auto;html=1;entryX=0;entryY=0;entryDx=0;entryDy=0;exitX=0.955;exitY=0.043;exitDx=0;exitDy=0;exitPerimeter=0;" edge="1" parent="1" source="2nJLoESrrKoE5sK8mSlh-59" target="2nJLoESrrKoE5sK8mSlh-61">
          <mxGeometry relative="1" as="geometry">
            <mxPoint x="220" y="1235" as="sourcePoint" />
            <mxPoint x="360" y="1235" as="targetPoint" />
          </mxGeometry>
        </mxCell>
        <mxCell id="2nJLoESrrKoE5sK8mSlh-58" value="order Id" style="edgeLabel;html=1;align=center;verticalAlign=middle;resizable=0;points=[];" vertex="1" connectable="0" parent="2nJLoESrrKoE5sK8mSlh-57">
          <mxGeometry x="-0.1143" y="2" relative="1" as="geometry">
            <mxPoint as="offset" />
          </mxGeometry>
        </mxCell>
        <mxCell id="2nJLoESrrKoE5sK8mSlh-59" value="Get customer order" style="rounded=1;whiteSpace=wrap;html=1;" vertex="1" parent="1">
          <mxGeometry x="80" y="1225" width="120" height="30" as="geometry" />
        </mxCell>
        <mxCell id="2nJLoESrrKoE5sK8mSlh-60" style="rounded=0;orthogonalLoop=1;jettySize=auto;html=1;exitX=0;exitY=1;exitDx=0;exitDy=0;entryX=1;entryY=1;entryDx=0;entryDy=0;" edge="1" parent="1" source="2nJLoESrrKoE5sK8mSlh-61" target="2nJLoESrrKoE5sK8mSlh-59">
          <mxGeometry relative="1" as="geometry" />
        </mxCell>
        <mxCell id="2nJLoESrrKoE5sK8mSlh-62" value="" style="rounded=0;whiteSpace=wrap;html=1;" vertex="1" parent="1">
          <mxGeometry x="670" y="1290" width="120" height="30" as="geometry" />
        </mxCell>
        <mxCell id="2nJLoESrrKoE5sK8mSlh-63" style="rounded=0;orthogonalLoop=1;jettySize=auto;html=1;entryX=0;entryY=0;entryDx=0;entryDy=0;exitX=0.893;exitY=0.047;exitDx=0;exitDy=0;exitPerimeter=0;" edge="1" parent="1" source="2nJLoESrrKoE5sK8mSlh-65" target="2nJLoESrrKoE5sK8mSlh-62">
          <mxGeometry relative="1" as="geometry">
            <mxPoint x="220" y="1300" as="sourcePoint" />
            <mxPoint x="360" y="1300" as="targetPoint" />
          </mxGeometry>
        </mxCell>
        <mxCell id="2nJLoESrrKoE5sK8mSlh-64" value="document status" style="edgeLabel;html=1;align=center;verticalAlign=middle;resizable=0;points=[];" vertex="1" connectable="0" parent="2nJLoESrrKoE5sK8mSlh-63">
          <mxGeometry x="-0.1143" y="2" relative="1" as="geometry">
            <mxPoint as="offset" />
          </mxGeometry>
        </mxCell>
        <mxCell id="2nJLoESrrKoE5sK8mSlh-65" value="Get by status" style="rounded=1;whiteSpace=wrap;html=1;" vertex="1" parent="1">
          <mxGeometry x="80" y="1290" width="120" height="30" as="geometry" />
        </mxCell>
        <mxCell id="2nJLoESrrKoE5sK8mSlh-66" style="rounded=0;orthogonalLoop=1;jettySize=auto;html=1;exitX=0;exitY=1;exitDx=0;exitDy=0;entryX=1;entryY=1;entryDx=0;entryDy=0;" edge="1" parent="1" source="2nJLoESrrKoE5sK8mSlh-62" target="2nJLoESrrKoE5sK8mSlh-65">
          <mxGeometry relative="1" as="geometry" />
        </mxCell>
        <mxCell id="2nJLoESrrKoE5sK8mSlh-73" style="rounded=0;orthogonalLoop=1;jettySize=auto;html=1;exitX=0;exitY=1;exitDx=0;exitDy=0;entryX=1;entryY=0;entryDx=0;entryDy=0;" edge="1" parent="1" source="2nJLoESrrKoE5sK8mSlh-67" target="2nJLoESrrKoE5sK8mSlh-72">
          <mxGeometry relative="1" as="geometry" />
        </mxCell>
        <mxCell id="2nJLoESrrKoE5sK8mSlh-74" value="REST Get&lt;br&gt;employee &amp;amp; customer" style="edgeLabel;html=1;align=center;verticalAlign=middle;resizable=0;points=[];" vertex="1" connectable="0" parent="2nJLoESrrKoE5sK8mSlh-73">
          <mxGeometry x="-0.339" y="-1" relative="1" as="geometry">
            <mxPoint x="-41" y="1" as="offset" />
          </mxGeometry>
        </mxCell>
        <mxCell id="2nJLoESrrKoE5sK8mSlh-67" value="" style="rounded=0;whiteSpace=wrap;html=1;" vertex="1" parent="1">
          <mxGeometry x="670" y="1350" width="120" height="30" as="geometry" />
        </mxCell>
        <mxCell id="2nJLoESrrKoE5sK8mSlh-68" style="rounded=0;orthogonalLoop=1;jettySize=auto;html=1;entryX=0;entryY=0;entryDx=0;entryDy=0;exitX=0.88;exitY=0.001;exitDx=0;exitDy=0;exitPerimeter=0;" edge="1" parent="1" source="2nJLoESrrKoE5sK8mSlh-70" target="2nJLoESrrKoE5sK8mSlh-67">
          <mxGeometry relative="1" as="geometry">
            <mxPoint x="220" y="1360" as="sourcePoint" />
            <mxPoint x="360" y="1360" as="targetPoint" />
          </mxGeometry>
        </mxCell>
        <mxCell id="2nJLoESrrKoE5sK8mSlh-70" value="Create customer order" style="rounded=1;whiteSpace=wrap;html=1;" vertex="1" parent="1">
          <mxGeometry x="80" y="1350" width="120" height="210" as="geometry" />
        </mxCell>
        <mxCell id="2nJLoESrrKoE5sK8mSlh-76" style="rounded=0;orthogonalLoop=1;jettySize=auto;html=1;exitX=1;exitY=1;exitDx=0;exitDy=0;entryX=0;entryY=0;entryDx=0;entryDy=0;" edge="1" parent="1" source="2nJLoESrrKoE5sK8mSlh-72" target="2nJLoESrrKoE5sK8mSlh-75">
          <mxGeometry relative="1" as="geometry" />
        </mxCell>
        <mxCell id="2nJLoESrrKoE5sK8mSlh-78" style="rounded=0;orthogonalLoop=1;jettySize=auto;html=1;exitX=1;exitY=1;exitDx=0;exitDy=0;entryX=0;entryY=0;entryDx=0;entryDy=0;" edge="1" parent="1" source="2nJLoESrrKoE5sK8mSlh-75" target="2nJLoESrrKoE5sK8mSlh-77">
          <mxGeometry relative="1" as="geometry" />
        </mxCell>
        <mxCell id="2nJLoESrrKoE5sK8mSlh-79" value="REST check car" style="edgeLabel;html=1;align=center;verticalAlign=middle;resizable=0;points=[];" vertex="1" connectable="0" parent="2nJLoESrrKoE5sK8mSlh-78">
          <mxGeometry x="0.2289" y="-3" relative="1" as="geometry">
            <mxPoint x="-11" y="-3" as="offset" />
          </mxGeometry>
        </mxCell>
        <mxCell id="2nJLoESrrKoE5sK8mSlh-81" style="rounded=0;orthogonalLoop=1;jettySize=auto;html=1;exitX=0;exitY=1;exitDx=0;exitDy=0;entryX=1;entryY=0;entryDx=0;entryDy=0;" edge="1" parent="1" source="2nJLoESrrKoE5sK8mSlh-77" target="2nJLoESrrKoE5sK8mSlh-80">
          <mxGeometry relative="1" as="geometry" />
        </mxCell>
        <mxCell id="2nJLoESrrKoE5sK8mSlh-82" style="rounded=0;orthogonalLoop=1;jettySize=auto;html=1;exitX=1;exitY=1;exitDx=0;exitDy=0;entryX=0;entryY=0;entryDx=0;entryDy=0;" edge="1" parent="1" source="2nJLoESrrKoE5sK8mSlh-80" target="2nJLoESrrKoE5sK8mSlh-83">
          <mxGeometry relative="1" as="geometry">
            <mxPoint x="980" y="1510" as="targetPoint" />
          </mxGeometry>
        </mxCell>
        <mxCell id="2nJLoESrrKoE5sK8mSlh-87" value="REST create order" style="edgeLabel;html=1;align=center;verticalAlign=middle;resizable=0;points=[];" vertex="1" connectable="0" parent="2nJLoESrrKoE5sK8mSlh-82">
          <mxGeometry x="-0.1405" y="2" relative="1" as="geometry">
            <mxPoint as="offset" />
          </mxGeometry>
        </mxCell>
        <mxCell id="2nJLoESrrKoE5sK8mSlh-85" style="rounded=0;orthogonalLoop=1;jettySize=auto;html=1;exitX=0;exitY=1;exitDx=0;exitDy=0;entryX=1;entryY=0;entryDx=0;entryDy=0;" edge="1" parent="1" source="2nJLoESrrKoE5sK8mSlh-83" target="2nJLoESrrKoE5sK8mSlh-84">
          <mxGeometry relative="1" as="geometry" />
        </mxCell>
        <mxCell id="2nJLoESrrKoE5sK8mSlh-86" style="rounded=0;orthogonalLoop=1;jettySize=auto;html=1;exitX=0;exitY=1;exitDx=0;exitDy=0;entryX=1;entryY=1;entryDx=0;entryDy=0;" edge="1" parent="1" source="2nJLoESrrKoE5sK8mSlh-84" target="2nJLoESrrKoE5sK8mSlh-70">
          <mxGeometry relative="1" as="geometry" />
        </mxCell>
        <mxCell id="2nJLoESrrKoE5sK8mSlh-96" value="" style="rounded=0;whiteSpace=wrap;html=1;" vertex="1" parent="1">
          <mxGeometry x="340" y="1650" width="120" height="30" as="geometry" />
        </mxCell>
        <mxCell id="2nJLoESrrKoE5sK8mSlh-97" value="" style="rounded=0;whiteSpace=wrap;html=1;" vertex="1" parent="1">
          <mxGeometry x="670" y="1680" width="120" height="30" as="geometry" />
        </mxCell>
        <mxCell id="2nJLoESrrKoE5sK8mSlh-98" value="Create edit model to warehouse" style="rounded=0;whiteSpace=wrap;html=1;" vertex="1" parent="1">
          <mxGeometry x="670" y="1740" width="120" height="30" as="geometry" />
        </mxCell>
        <mxCell id="2nJLoESrrKoE5sK8mSlh-99" value="save order" style="rounded=0;whiteSpace=wrap;html=1;" vertex="1" parent="1">
          <mxGeometry x="670" y="1800" width="120" height="30" as="geometry" />
        </mxCell>
        <mxCell id="2nJLoESrrKoE5sK8mSlh-100" value="" style="rounded=0;whiteSpace=wrap;html=1;" vertex="1" parent="1">
          <mxGeometry x="970" y="1710" width="120" height="30" as="geometry" />
        </mxCell>
        <mxCell id="2nJLoESrrKoE5sK8mSlh-101" value="check status, car" style="rounded=0;whiteSpace=wrap;html=1;" vertex="1" parent="1">
          <mxGeometry x="970" y="1770" width="120" height="30" as="geometry" />
        </mxCell>
        <mxCell id="2nJLoESrrKoE5sK8mSlh-102" style="rounded=0;orthogonalLoop=1;jettySize=auto;html=1;exitX=0;exitY=1;exitDx=0;exitDy=0;entryX=1;entryY=0;entryDx=0;entryDy=0;" edge="1" parent="1" source="2nJLoESrrKoE5sK8mSlh-104" target="2nJLoESrrKoE5sK8mSlh-96">
          <mxGeometry relative="1" as="geometry" />
        </mxCell>
        <mxCell id="2nJLoESrrKoE5sK8mSlh-103" value="REST Get&lt;br&gt;employee &amp;amp; customer" style="edgeLabel;html=1;align=center;verticalAlign=middle;resizable=0;points=[];" vertex="1" connectable="0" parent="2nJLoESrrKoE5sK8mSlh-102">
          <mxGeometry x="-0.339" y="-1" relative="1" as="geometry">
            <mxPoint x="-41" y="1" as="offset" />
          </mxGeometry>
        </mxCell>
        <mxCell id="2nJLoESrrKoE5sK8mSlh-104" value="" style="rounded=0;whiteSpace=wrap;html=1;" vertex="1" parent="1">
          <mxGeometry x="670" y="1620" width="120" height="30" as="geometry" />
        </mxCell>
        <mxCell id="2nJLoESrrKoE5sK8mSlh-105" style="rounded=0;orthogonalLoop=1;jettySize=auto;html=1;entryX=0;entryY=0;entryDx=0;entryDy=0;exitX=0.88;exitY=0.001;exitDx=0;exitDy=0;exitPerimeter=0;" edge="1" parent="1" source="2nJLoESrrKoE5sK8mSlh-107" target="2nJLoESrrKoE5sK8mSlh-104">
          <mxGeometry relative="1" as="geometry">
            <mxPoint x="220" y="1630" as="sourcePoint" />
            <mxPoint x="360" y="1630" as="targetPoint" />
          </mxGeometry>
        </mxCell>
        <mxCell id="2nJLoESrrKoE5sK8mSlh-107" value="edit customer order" style="rounded=1;whiteSpace=wrap;html=1;" vertex="1" parent="1">
          <mxGeometry x="80" y="1620" width="120" height="210" as="geometry" />
        </mxCell>
        <mxCell id="2nJLoESrrKoE5sK8mSlh-108" style="rounded=0;orthogonalLoop=1;jettySize=auto;html=1;exitX=1;exitY=1;exitDx=0;exitDy=0;entryX=0;entryY=0;entryDx=0;entryDy=0;" edge="1" parent="1" source="2nJLoESrrKoE5sK8mSlh-96" target="2nJLoESrrKoE5sK8mSlh-97">
          <mxGeometry relative="1" as="geometry" />
        </mxCell>
        <mxCell id="2nJLoESrrKoE5sK8mSlh-109" style="rounded=0;orthogonalLoop=1;jettySize=auto;html=1;exitX=1;exitY=1;exitDx=0;exitDy=0;entryX=0;entryY=0;entryDx=0;entryDy=0;" edge="1" parent="1" source="2nJLoESrrKoE5sK8mSlh-97" target="2nJLoESrrKoE5sK8mSlh-100">
          <mxGeometry relative="1" as="geometry" />
        </mxCell>
        <mxCell id="2nJLoESrrKoE5sK8mSlh-110" value="REST check car" style="edgeLabel;html=1;align=center;verticalAlign=middle;resizable=0;points=[];" vertex="1" connectable="0" parent="2nJLoESrrKoE5sK8mSlh-109">
          <mxGeometry x="0.2289" y="-3" relative="1" as="geometry">
            <mxPoint x="-11" y="-3" as="offset" />
          </mxGeometry>
        </mxCell>
        <mxCell id="2nJLoESrrKoE5sK8mSlh-111" style="rounded=0;orthogonalLoop=1;jettySize=auto;html=1;exitX=0;exitY=1;exitDx=0;exitDy=0;entryX=1;entryY=0;entryDx=0;entryDy=0;" edge="1" parent="1" source="2nJLoESrrKoE5sK8mSlh-100" target="2nJLoESrrKoE5sK8mSlh-98">
          <mxGeometry relative="1" as="geometry" />
        </mxCell>
        <mxCell id="2nJLoESrrKoE5sK8mSlh-112" style="rounded=0;orthogonalLoop=1;jettySize=auto;html=1;exitX=1;exitY=1;exitDx=0;exitDy=0;entryX=0;entryY=0;entryDx=0;entryDy=0;" edge="1" parent="1" source="2nJLoESrrKoE5sK8mSlh-98" target="2nJLoESrrKoE5sK8mSlh-101">
          <mxGeometry relative="1" as="geometry">
            <mxPoint x="980" y="1780" as="targetPoint" />
          </mxGeometry>
        </mxCell>
        <mxCell id="2nJLoESrrKoE5sK8mSlh-113" value="REST edit&amp;nbsp; model" style="edgeLabel;html=1;align=center;verticalAlign=middle;resizable=0;points=[];" vertex="1" connectable="0" parent="2nJLoESrrKoE5sK8mSlh-112">
          <mxGeometry x="-0.1405" y="2" relative="1" as="geometry">
            <mxPoint as="offset" />
          </mxGeometry>
        </mxCell>
        <mxCell id="2nJLoESrrKoE5sK8mSlh-114" style="rounded=0;orthogonalLoop=1;jettySize=auto;html=1;exitX=0;exitY=1;exitDx=0;exitDy=0;entryX=1;entryY=0;entryDx=0;entryDy=0;" edge="1" parent="1" source="2nJLoESrrKoE5sK8mSlh-101" target="2nJLoESrrKoE5sK8mSlh-99">
          <mxGeometry relative="1" as="geometry" />
        </mxCell>
        <mxCell id="2nJLoESrrKoE5sK8mSlh-115" style="rounded=0;orthogonalLoop=1;jettySize=auto;html=1;exitX=0;exitY=1;exitDx=0;exitDy=0;entryX=1;entryY=1;entryDx=0;entryDy=0;" edge="1" parent="1" source="2nJLoESrrKoE5sK8mSlh-99" target="2nJLoESrrKoE5sK8mSlh-107">
          <mxGeometry relative="1" as="geometry" />
        </mxCell>
      </root>
    </mxGraphModel>
  </diagram>
</mxfile>
